<svg xmlns="http://www.w3.org/2000/svg" viewBox="0 0 100 100">
  <circle cx="46" cy="54" r="42" fill="none" stroke="#FF6F7D" stroke-width="7" pathLength="100" stroke-dasharray="70 30" stroke-linecap="round" transform="rotate(118 46 54)"/>
  <circle cx="46" cy="54" r="33.5" fill="none" stroke="#FFC857" stroke-width="6.5" pathLength="100" stroke-dasharray="68 32" stroke-linecap="round" transform="rotate(118 46 54)"/>
  <circle cx="46" cy="54" r="25.5" fill="none" stroke="#7BC96F" stroke-width="6" pathLength="100" stroke-dasharray="66 34" stroke-linecap="round" transform="rotate(118 46 54)"/>
  <circle cx="46" cy="54" r="18" fill="none" stroke="#6DB7FF" stroke-width="5.5" pathLength="100" stroke-dasharray="63 37" stroke-linecap="round" transform="rotate(118 46 54)"/>
  <circle cx="46" cy="54" r="42" fill="none" stroke="#A78BFA" stroke-width="7" pathLength="100" stroke-dasharray="14 86" stroke-linecap="round" transform="rotate(50 46 54)"/>
  <path d="M40 34 V72 H62" fill="none" stroke="#1F3A5F" stroke-width="13" stroke-linecap="round" stroke-linejoin="round"/>
  <path d="M82 10 L85 20 L95 23 L85 26 L82 36 L79 26 L69 23 L79 20 Z" fill="#FFC857"/>
  <path d="M90 44 L92 50 L98 52 L92 54 L90 60 L88 54 L82 52 L88 50 Z" fill="#6DB7FF"/>
</svg>
